<?xml version="1.0" encoding="UTF-8" standalone="no"?>
<!DOCTYPE svg PUBLIC "-//W3C//DTD SVG 1.1//EN" "http://www.w3.org/Graphics/SVG/1.1/DTD/svg11.dtd">
<svg width="100%" height="100%" viewBox="0 0 49 65" version="1.1" xmlns="http://www.w3.org/2000/svg" xmlns:xlink="http://www.w3.org/1999/xlink" xml:space="preserve" xmlns:serif="http://www.serif.com/" style="fill-rule:evenodd;clip-rule:evenodd;stroke-linejoin:round;stroke-miterlimit:2;">
    <g transform="matrix(1,0,0,1,-10.75,-3.66667)">
        <g transform="matrix(0.869176,0,0,0.869176,3.13023,0.827359)">
            <path d="M36.667,3.267C52.065,3.267 64.567,15.768 64.567,31.167C64.567,46.565 52.065,59.067 36.667,59.067C21.268,59.067 8.767,46.565 8.767,31.167C8.767,15.768 21.268,3.267 36.667,3.267ZM36.667,12.554C46.939,12.554 55.28,20.894 55.28,31.167C55.28,41.439 46.939,49.78 36.667,49.78C26.394,49.78 18.054,41.439 18.054,31.167C18.054,20.894 26.394,12.554 36.667,12.554Z"/>
        </g>
        <g id="flame" transform="matrix(0.248487,0,0,0.198466,3.12637,18.2938)">
            <path d="M168.19,180.151C161.051,186.256 144.685,190.56 128.271,190.56C108.124,190.56 95.041,184.57 88.704,177.403C87.102,182.238 86.912,186.079 86.912,189.614C86.912,189.614 85.856,206.969 97.927,219.04C97.927,212.772 103.008,207.691 109.276,207.691C120.019,207.691 120.007,217.064 119.997,224.668L119.997,225.347C119.997,236.889 127.051,246.783 137.083,250.953C135.539,247.775 134.739,244.286 134.744,240.753C134.744,229.745 141.207,225.646 148.718,220.883C154.694,217.093 161.334,212.882 165.91,204.434C168.374,199.884 169.661,194.789 169.653,189.614C169.653,186.315 169.14,183.135 168.19,180.151Z" style="fill:rgb(255,93,1);"/>
        </g>
    </g>
</svg>
