<?xml version="1.0" encoding="UTF-8" standalone="no"?>
<!DOCTYPE svg PUBLIC "-//W3C//DTD SVG 1.1//EN" "http://www.w3.org/Graphics/SVG/1.1/DTD/svg11.dtd">
<svg width="100%" height="100%" viewBox="0 0 152 38" version="1.1" xmlns="http://www.w3.org/2000/svg" xmlns:xlink="http://www.w3.org/1999/xlink" xml:space="preserve" xmlns:serif="http://www.serif.com/" style="fill-rule:evenodd;clip-rule:evenodd;stroke-linejoin:round;stroke-miterlimit:2;">
    <g transform="matrix(1,0,0,1,-81.3617,-189.993)">
        <g transform="matrix(0.663642,0,0,0.663642,75.5437,187.825)">
            <path d="M36.667,3.267C52.065,3.267 64.567,15.768 64.567,31.167C64.567,46.565 52.065,59.067 36.667,59.067C21.268,59.067 8.767,46.565 8.767,31.167C8.767,15.768 21.268,3.267 36.667,3.267ZM36.667,13.815C46.244,13.815 54.019,21.59 54.019,31.167C54.019,40.744 46.244,48.519 36.667,48.519C27.09,48.519 19.315,40.744 19.315,31.167C19.315,21.59 27.09,13.815 36.667,13.815Z" style="fill:rgb(255,93,1);"/>
        </g>
        <g transform="matrix(1,0,0,1,-10.6064,12.0782)">
            <g transform="matrix(30,0,0,30,149.452,206.765)">
                <path d="M0.542,-0.689L0.053,-0.689L0.053,-0.566L0.361,-0.566L0.04,-0.107L0.04,-0L0.542,-0L0.542,-0.123L0.217,-0.123L0.542,-0.582L0.542,-0.689Z" style="fill:white;fill-rule:nonzero;"/>
            </g>
            <g transform="matrix(30,0,0,30,173.092,206.765)">
                <path d="M0.223,-0.123L0.223,-0.277L0.48,-0.277L0.48,-0.402L0.223,-0.402L0.223,-0.566L0.516,-0.566L0.516,-0.689L0.084,-0.689L0.084,-0L0.525,-0L0.525,-0.123L0.223,-0.123Z" style="fill:white;fill-rule:nonzero;"/>
            </g>
            <g transform="matrix(30,0,0,30,196.312,206.765)">
                <path d="M0.434,-0L0.597,-0L0.418,-0.254C0.453,-0.261 0.481,-0.273 0.503,-0.29C0.525,-0.307 0.542,-0.325 0.554,-0.345C0.566,-0.365 0.574,-0.385 0.579,-0.406C0.583,-0.427 0.585,-0.446 0.585,-0.464C0.585,-0.509 0.576,-0.548 0.557,-0.582C0.538,-0.616 0.511,-0.642 0.478,-0.661C0.446,-0.68 0.406,-0.689 0.359,-0.689L0.084,-0.689L0.084,-0L0.223,-0L0.223,-0.247L0.27,-0.247L0.434,-0ZM0.223,-0.566L0.345,-0.566C0.376,-0.566 0.4,-0.556 0.418,-0.536C0.436,-0.515 0.445,-0.49 0.445,-0.461C0.445,-0.44 0.44,-0.421 0.43,-0.405C0.42,-0.388 0.406,-0.377 0.389,-0.37C0.372,-0.363 0.353,-0.359 0.334,-0.359L0.223,-0.359L0.223,-0.566Z" style="fill:white;fill-rule:nonzero;"/>
            </g>
            <g transform="matrix(30,0,0,30,221.302,206.765)">
                <path d="M0.392,0.009C0.439,0.009 0.485,-0 0.528,-0.019C0.571,-0.037 0.608,-0.062 0.641,-0.095C0.673,-0.127 0.698,-0.165 0.716,-0.208C0.734,-0.251 0.743,-0.297 0.743,-0.344C0.743,-0.391 0.734,-0.437 0.716,-0.48C0.698,-0.523 0.673,-0.561 0.641,-0.594C0.608,-0.627 0.571,-0.652 0.528,-0.671C0.485,-0.689 0.439,-0.698 0.392,-0.698C0.345,-0.698 0.3,-0.689 0.257,-0.671C0.214,-0.652 0.176,-0.627 0.144,-0.594C0.112,-0.561 0.087,-0.523 0.069,-0.48C0.051,-0.437 0.042,-0.391 0.042,-0.344C0.042,-0.297 0.051,-0.251 0.069,-0.208C0.087,-0.165 0.112,-0.127 0.144,-0.095C0.176,-0.062 0.214,-0.037 0.257,-0.019C0.3,-0 0.345,0.009 0.392,0.009ZM0.392,-0.121C0.362,-0.121 0.332,-0.128 0.303,-0.141C0.274,-0.154 0.25,-0.172 0.231,-0.198C0.212,-0.223 0.199,-0.248 0.192,-0.273C0.185,-0.298 0.181,-0.321 0.181,-0.344C0.181,-0.382 0.188,-0.416 0.203,-0.445C0.217,-0.474 0.234,-0.498 0.255,-0.517C0.276,-0.535 0.298,-0.548 0.323,-0.556C0.347,-0.563 0.37,-0.567 0.392,-0.567C0.422,-0.567 0.45,-0.561 0.476,-0.55C0.502,-0.539 0.525,-0.523 0.544,-0.502C0.563,-0.481 0.577,-0.457 0.588,-0.43C0.598,-0.403 0.603,-0.374 0.603,-0.344C0.603,-0.314 0.598,-0.285 0.588,-0.258C0.577,-0.231 0.563,-0.207 0.544,-0.186C0.525,-0.165 0.502,-0.149 0.476,-0.138C0.45,-0.127 0.422,-0.121 0.392,-0.121Z" style="fill:white;fill-rule:nonzero;"/>
            </g>
        </g>
    </g>
</svg>
