<svg xmlns="http://www.w3.org/2000/svg" xmlns:xlink="http://www.w3.org/1999/xlink" version="1.1" x="0px" y="0px" viewBox="0 0 100 100" enable-background="new 0 0 100 100" xml:space="preserve">
    <path d="M60.594,16.81c0,0.984-0.798,1.783-1.783,1.783s-1.783-0.798-1.783-1.783s0.798-1.783,1.783-1.783  S60.594,15.825,60.594,16.81z M78.7,77.146L78.7,77.146c5.511-0.809,9.159-5.267,9.31-5.456l0.791-0.982l-1.065-0.675  c-0.213-0.135-5.262-3.286-10.453-2.525c-5.976,0.878-9.216,5.318-9.351,5.507l-0.689,0.963l0.997,0.639  c0.188,0.121,4.187,2.65,8.771,2.65C77.566,77.267,78.131,77.23,78.7,77.146z M77.61,69.735c2.989-0.435,6.044,0.745,7.692,1.541  c-1.289,1.221-3.789,3.182-6.93,3.643l0,0c-3.046,0.447-6.134-0.767-7.755-1.564C71.799,72.163,74.181,70.239,77.61,69.735z   M69.27,67.768c-2.88,2.338-8.369,6.848-14.189,11.64c2.51-1.088,5.553-1.922,9.056-1.935c0.02,0,0.041,0,0.06,0  c8.746,0,16.358,6.672,16.679,6.956l0.907,0.806l-0.871,0.844c-0.298,0.289-7.401,7.068-16.72,7.101c-0.021,0-0.042,0-0.062,0  c-8.843,0.001-16.368-6.676-16.685-6.961l-0.302-0.271c-4.473,3.689-8.506,7.019-10.964,9.05h-3.534  c2.385-1.97,15.107-12.481,25.041-20.651V63.375l-33.54,27.572H11.889l19.27-20.778h3.073L17.055,88.697h6.292L61.246,57.54  C74.1,46.994,78.478,28.962,71.894,13.699l-0.146-0.326c-1.981-4.57-6.934-7.024-11.762-5.819c-4.018,0.991-7.001,4.277-7.609,8.363  l-0.09,0.563l-4.885,2.668l4.896,1.159c0,0,0.022,6.258-0.079,7.812L14.241,69.134l19.855-4.716  c5.954-1.407,10.963-5.076,14.104-10.333c2.184-3.647,3.264-7.733,3.174-11.875h2.251c0.09,4.547-1.103,9.027-3.501,13.034  c-3.444,5.785-8.96,9.815-15.511,11.357L7.567,73.028l42.455-45.856c0.063-1.224,0.047-5.076,0.047-5.076l-8.903-2.116l9.072-4.953  c0.923-4.727,4.48-8.487,9.207-9.657c5.898-1.463,11.942,1.52,14.374,7.102l0.135,0.326c6.99,16.186,2.352,35.298-11.278,46.475  l-2.738,2.251v10.973c3.286-2.7,6.112-5.015,7.914-6.478c7.94-6.444,16.542-11.6,24.582-14.83v2.431  C84.849,56.782,76.769,61.683,69.27,67.768z M49.901,85.319c2.21,1.704,7.99,5.593,14.283,5.611  c6.528-0.023,12.032-3.882,14.188-5.628c-2.263-1.72-8.023-5.577-14.175-5.577c-0.018,0-0.035,0-0.052,0  C57.033,79.751,51.867,83.59,49.901,85.319z"/>
</svg>